# xmcd
#
# Track frame offsets: 
#        150
#        32617
#        53825
#        63330
#        87165
#        107385
#        133832
#        151825
#        175047
#        195825
#        214510
#        249937
#        277695
#        309035
#        314052
#
# Disc length: 4428 seconds
#
# Revision: 5
# Processed by: cddbd v1.5.2PL0 Copyright (c) Steve Scherf et al.
# Submitted via: ExactAudioCopy v0.99pb5
#
DISCID=b2114a0f
DTITLE=Waters Muddy - Live in Chicago 1979
DYEAR=1997
DGENRE=Blues
TTITLE0=Last nite
TTITLE1=Harry's groove
TTITLE2=Instrumental with spoken intro by Muddy Waters
TTITLE3=Nine below zero
TTITLE4=Baby please don't go
TTITLE5=They call me Muddy Waters
TTITLE6=Everything's gonna be alright
TTITLE7=Manish boy
TTITLE8=Lonesome in my bedroom
TTITLE9=Corrine Corrina
TTITLE10=Kansas City
TTITLE11=Caldonia
TTITLE12=Long distance call
TTITLE13=Hold it
TTITLE14=Got my mojo working (encore)
EXTD=
EXTT0=
EXTT1=
EXTT2=
EXTT3=
EXTT4=
EXTT5=
EXTT6=
EXTT7=
EXTT8=
EXTT9=
EXTT10=
EXTT11=
EXTT12=
EXTT13=
EXTT14=
PLAYORDER=
